<svg width="62" height="62" viewBox="0 0 62 62" fill="none" xmlns="http://www.w3.org/2000/svg">
<g clip-path="url(#clip0_68_39)">
<path fill-rule="evenodd" clip-rule="evenodd" d="M36.8125 56.1875L13.5625 46.5V15.5L36.8125 5.81253V56.1875ZM10.1331 51.367C9.42728 51.0726 8.82434 50.5758 8.40027 49.9394C7.97619 49.3029 7.74994 48.5552 7.75 47.7904V14.2097C7.74994 13.4449 7.97619 12.6971 8.40027 12.0607C8.82434 11.4242 9.42728 10.9275 10.1331 10.633L34.5766 0.445654C35.46 0.0775036 36.4207 -0.0668085 37.3733 0.0255321C38.3259 0.117873 39.241 0.444008 40.0372 0.974981C40.8335 1.50595 41.4863 2.22533 41.9378 3.06924C42.3892 3.91314 42.6253 4.85547 42.625 5.81253V7.75003H47.4688C51.212 7.75003 54.25 10.7842 54.25 14.5313V47.4688C54.25 49.2673 53.5355 50.9921 52.2638 52.2638C50.9921 53.5356 49.2673 54.25 47.4688 54.25H42.625V56.1875C42.6253 57.1446 42.3892 58.0869 41.9378 58.9308C41.4863 59.7747 40.8335 60.4941 40.0372 61.0251C39.241 61.556 38.3259 61.8822 37.3733 61.9745C36.4207 62.0669 35.46 61.9226 34.5766 61.5544L10.1331 51.367ZM42.625 48.4375H47.4688C47.7257 48.4375 47.9721 48.3355 48.1538 48.1538C48.3354 47.9721 48.4375 47.7257 48.4375 47.4688V14.5313C48.4375 14.2744 48.3354 14.0279 48.1538 13.8463C47.9721 13.6646 47.7257 13.5625 47.4688 13.5625H42.625V48.4375Z" fill="black"/>
</g>
<defs>
<clipPath id="clip0_68_39">
<rect width="62" height="62" fill="white"/>
</clipPath>
</defs>
</svg>
