<svg width="62" height="62" viewBox="0 0 62 62" fill="none" xmlns="http://www.w3.org/2000/svg">
<path d="M62 11.625V42.625H58.125V25.3994L38.75 35.1172V38.75H23.25V35.1172L3.875 25.3994V46.5H38.75V50.375H0V11.625H19.375V7.75C19.375 7.20508 19.4759 6.70052 19.6777 6.23633C19.8796 5.77213 20.152 5.36849 20.4951 5.02539C20.8382 4.68229 21.252 4.39974 21.7363 4.17773C22.2207 3.95573 22.7253 3.85482 23.25 3.875H38.75C39.2949 3.875 39.7995 3.97591 40.2637 4.17773C40.7279 4.37955 41.1315 4.65202 41.4746 4.99511C41.8177 5.33821 42.1003 5.75195 42.3223 6.23633C42.5443 6.7207 42.6452 7.22526 42.625 7.75V11.625H62ZM23.25 11.625H38.75V7.75H23.25V11.625ZM34.875 31H27.125V34.875H34.875V31ZM58.125 21.1006V15.5H3.875V21.1006L23.25 30.7578V27.125H38.75V30.7578L58.125 21.1006ZM54.25 46.5H62V50.375H54.25V58.125H50.375V50.375H42.625V46.5H50.375V38.75H54.25V46.5Z" fill="black"/>
</svg>
